<?xml version="1.0" encoding="UTF-8"?><svg id="b" xmlns="http://www.w3.org/2000/svg" width="123.987" height="417.039" viewBox="0 0 123.987 417.039"><defs><style>.d{fill:#febe69;}.d,.e,.f,.g{stroke-width:0px;}.e{fill:#211715;}.f{fill:#645d5c;}.g{fill:#fff;}</style></defs><g id="c"><path class="g" d="M89.784,46.826c.897-.862,2.106-1.186,3.14-1.15,2.251.079,3.209,1.297,3.621,2.012,1.23,2.134,1.178,6.066.352,8.499-.585,1.723-1.543,4.359-3.853,6.248-.952.779-2.353,1.292-3.692,1.066l-.354-.06c-.425,1.404-.95,2.78-1.27,3.448-.939,2.548-6.126,11.483-12.69,14.967.098,1.26.261,2.506.481,3.759.343,1.964.237,3.716,2.97,4.704.062.023,1.056.491,2.332,1.095-2.53,4.939-11.266,7.024-18.934,7.024-6.156,0-13.917-1.632-19.022-6.37,1.962-.909,3.705-1.72,3.784-1.749,2.734-.988,2.615-2.739,2.97-4.704.195-1.137.349-2.185.444-3.286-3.238-1.412-6.118-3.796-8.852-7.068-3.327-3.982-5.222-8.272-6.268-11.826-1.427.368-2.971-.163-3.995-1-2.31-1.89-3.268-4.526-3.853-6.248-.826-2.433-.878-6.365.352-8.499.412-.715,1.37-1.932,3.621-2.012,1.034-.036,2.243.287,3.14,1.15,0,0-4.41-27.143,27.787-27.143,31.899,0,27.787,27.143,27.787,27.143Z"/><path class="f" d="M85.656,92.688c-1.776-.688-3.496-1.326-5.089-1.899,0,0-.549-.064-1.424-.166-.383-.18-.624-.292-.654-.303-2.734-.988-2.627-2.739-2.97-4.704-.22-1.254-.383-2.501-.48-3.76,6.563-3.484,11.751-12.419,12.689-14.967.321-.668.845-2.044,1.27-3.448.226.038.354.06.354.06,1.339.226,2.74-.287,3.692-1.066.181-.148.355-.302.52-.458,3.651,2.478,6.194,6.6,6.704,11.003.49,4.38-1.59,8.84-2.62,13.13-.961,4.01-.982,8.265.567,12.054-3.882-1.963-8.377-3.856-12.56-5.476Z"/><path class="e" d="M37.833,96.532c.871-.305,1.717-.743,2.555-1.127,1.285-.589,2.568-1.183,3.851-1.778,1.007-.467,2.014-.936,3.023-1.4.104-.048.21-.093.313-.143.089-.044.268-.117-.163.067-.513.22-.068.035.064-.017.253-.101.506-.203.752-.322.987-.476,1.886-1.258,2.41-2.23.486-.902.661-1.854.815-2.852.226-1.464.478-2.921.611-4.398.094-1.045-.987-2.045-2-2-1.164.052-1.899.881-2,2-.151,1.678-.46,3.49-.891,5.286-.059.246.197-.313.041-.115-.053.067-.089.158-.131.233-.223.395.179-.132-.067.089-.064.057-.154.137-.213.205.216-.252.158-.1.028-.023-.099.059-.192.124-.293.181-.037.021-.454.23-.275.149.176-.08-.145.055-.145.054-.153.062-.333.138-.484.204-.022.009-.043.019-.065.029-.101.044-.2.091-.3.137-2.145.985-4.282,1.988-6.428,2.973-.556.256-1.113.511-1.671.762-.177.08-.355.158-.532.237-.445.198.5-.187.132-.058-.985.345-1.745,1.384-1.397,2.46.315.974,1.403,1.767,2.46,1.397h0Z"/><path class="e" d="M73.064,82.173c.125,1.379.325,2.747.55,4.112.117.707.182,1.431.394,2.119.281.908.758,1.79,1.472,2.432.394.354.834.678,1.308.917.319.16.651.299.983.427.638.244-.464-.225-.22-.1,1.905.975,3.883,1.832,5.818,2.747.925.437,1.844.891,2.788,1.286.968.406,2.241-.436,2.46-1.397.266-1.17-.36-2.026-1.397-2.46.993.416.083.02-.15-.089-.414-.195-.828-.39-1.242-.586-1.121-.53-2.241-1.061-3.362-1.591-.867-.41-1.733-.822-2.602-1.228-.094-.044-.188-.089-.282-.131-.024-.011-.048-.022-.072-.032-.144-.063-.337-.145-.483-.204-.059-.024-.365-.17-.061-.019-.179-.089-.351-.18-.524-.281-.057-.033-.342-.221-.112-.062.204.141.014.012-.023-.026-.062-.062-.13-.132-.196-.191-.291-.26.101.076.063.103-.02.014-.265-.449-.288-.483-.111-.167.088.174.078.196.012-.027-.109-.318-.119-.351-.047-.161-.086-.324-.121-.488-.081-.386-.133-.776-.192-1.166-.085-.564-.187-1.125-.272-1.689-.036-.241-.041-.277-.081-.615-.045-.383-.083-.766-.118-1.15-.094-1.039-.853-2.051-2-2-1.003.045-2.101.884-2,2h0Z"/><path class="d" d="M10.36,118.617c1.379-5.559,3.087-10.438,8.531-15.798,4.058-3.983,14.713-8.289,23.381-11.325,5.08,5.181,13.216,6.945,19.616,6.945,7.705,0,16.489-2.105,18.97-7.095,8.857,3.257,20.695,8.218,24.835,12.529,5.455,5.681,7.161,10.851,8.545,16.738l-.304-1.285c4.554,16.556,6.482,24.379,8.052,38.451.219,2.007.078,5.868-.772,8.458-1.097,3.34-2.215,4.882-4.633,7.14-2.008,1.876-6.435,3.803-10.577,3.803-4.088-.151-7.344-1.581-9.773-3.353.306,7.405,1.537,15.028,1.547,17.906-.05.83-.4,1.7-1.03,2.14-.44.31-.99.37-1.51.37H28.747c-.52,0-1.06-.06-1.5-.37-.63-.44-.98-1.31-1.03-2.14.08-2.91,1.26-9.52,1.46-16.49,0,0,.015-.522.046-1.386-2.425,1.758-5.667,3.173-9.732,3.324-4.142,0-8.569-1.926-10.577-3.803-2.418-2.258-3.536-3.8-4.633-7.14-.851-2.59-.991-6.452-.772-8.458,1.57-14.072,3.498-21.895,8.052-38.451l.299-.709Z"/><path class="g" d="M21.646,413.705c-.509-.235-.997-.51-1.457-.834-1.59-1.118-2.952-2.789-2.999-4.732-.069-2.84,1.467-5.43,3.425-7.379,3.014-3,6.332-6.041,9.346-9.131,0,0,3.988-4.406,4.208-4.632,0,0,1.624-2.994,3.213-5.92,6.203,1.029,12.838.952,18.834-.245.419,2.748.89,5.832.89,5.832.282,1.855.318,4.573.357,5.613.102,2.708.621,6.658-4.027,9.562-.724.452-2.983,2.018-5.54,3.799-4.006,2.792-8.743,6.116-9.446,6.521-3.841,2.214-8.408,3.204-12.815,2.63-1.369-.179-2.74-.507-3.989-1.083Z"/><path class="g" d="M86.31,412.577c-.258-.134-.512-.274-.764-.419-.703-.405-5.44-3.729-9.446-6.521-2.557-1.782-4.816-3.347-5.54-3.799-4.648-2.903-4.129-6.854-4.027-9.562.039-1.04.076-3.758.357-5.613,0,0,.423-2.721.86-5.541,5.471.896,11.381.892,16.955-.002.659-.106,1.314-.224,1.962-.354,1.583,3.122,3.159,6.229,3.159,6.229.22.225,4.208,4.632,4.208,4.632,3.014,3.09,6.332,6.131,9.346,9.131,1.958,1.949,3.494,4.539,3.425,7.379-.047,1.943-1.409,3.615-2.999,4.732s-3.519,1.666-5.446,1.917c-4.118.537-8.376-.293-12.05-2.21Z"/><path class="e" d="M32.754,385.582c-1.2,1.262-2.347,2.577-3.516,3.868-2.012,2.222-4.221,4.265-6.381,6.34-2.791,2.68-5.928,5.273-7.173,9.075-1.194,3.642-.005,7.06,2.999,9.361,5.756,4.411,15.165,3.16,20.99-.472,2.506-1.563,4.888-3.357,7.309-5.047,2.708-1.89,5.501-3.684,8.174-5.621,2.853-2.068,4.312-5.015,4.374-8.516.053-2.959-.171-6.014-.589-8.938-.153-1.07-1.513-1.657-2.46-1.397-1.15.316-1.55,1.387-1.397,2.46.317,2.219.354,4.503.431,6.742.069,2.024-.127,3.981-1.614,5.502-.824.843-1.868,1.421-2.836,2.081-1.399.953-2.787,1.923-4.177,2.891-2.496,1.74-4.985,3.49-7.493,5.214-4.64,3.19-10.527,4.989-16.077,3.102-1.275-.433-2.503-1.179-3.349-2.245-.968-1.22-.907-2.633-.427-4.053,1.018-3.014,3.93-5.182,6.145-7.31,2.137-2.052,4.326-4.071,6.316-6.268,1.191-1.314,2.36-2.654,3.582-3.94,1.773-1.866-1.051-4.699-2.828-2.828h0Z"/><path class="e" d="M64.968,385.672c-.368,2.61-.407,5.255-.49,7.887-.089,2.814.48,5.482,2.321,7.686.979,1.172,2.257,1.977,3.511,2.818,1.473.988,2.925,2.008,4.38,3.021,2.824,1.967,5.634,3.954,8.477,5.893,5.513,3.762,13.271,5.362,19.593,2.713,3.285-1.377,6.241-4.368,6.034-8.156-.215-3.942-2.606-6.842-5.307-9.478-2.764-2.696-5.678-5.277-8.29-8.123-1.325-1.444-2.605-2.932-3.955-4.352-1.777-1.87-4.602.962-2.828,2.828,2.628,2.765,5.117,5.596,7.864,8.252,1.347,1.303,2.706,2.594,4.05,3.9,1.187,1.153,2.443,2.27,3.316,3.691.697,1.135,1.28,2.523,1.163,3.885-.108,1.26-1.027,2.284-2.009,3.005-2.585,1.899-6.409,2.075-9.468,1.638-2.64-.377-5.247-1.316-7.467-2.799-4.773-3.187-9.359-6.655-14.166-9.792-2.248-1.467-3.246-3.347-3.232-6.008.013-2.451.02-5.024.361-7.448.15-1.068-.261-2.148-1.397-2.46-.937-.257-2.309.32-2.46,1.397h0Z"/><path class="g" d="M28.272,194.884c-4.808,13.867-5.025,28.969-5.025,43.653,0,39-.55,107.125-.55,144.274,8.473,3.111,32.823,1.257,39.302-1.115,6.46,2.371,30.822,4.227,39.298,1.115,0-37.149-.55-105.273-.55-144.274,0-14.684-.217-29.786-5.025-43.653"/><path class="e" d="M93.794,195.415c4.881,14.234,4.95,29.397,4.954,44.274.003,10.843.041,21.685.085,32.528.103,24.901.255,49.803.365,74.704.052,11.963.099,23.926.099,35.889l1.468-1.929c-2.372.849-4.914,1.15-7.413,1.341-3.44.262-6.899.275-10.345.168-6.118-.189-12.396-.599-18.371-2.011-2.503-.591-3.572,3.264-1.063,3.857,4.728,1.117,9.643,1.584,14.48,1.91,5.52.372,11.115.504,16.628-.04,2.402-.237,4.864-.55,7.147-1.368.838-.3,1.468-1.001,1.468-1.929,0-22.971-.143-45.941-.262-68.912-.123-23.752-.265-47.505-.286-71.257-.014-16.18.218-32.788-5.098-48.289-.83-2.421-4.695-1.381-3.857,1.063h0Z"/><path class="e" d="M26.343,194.352c-4.925,14.362-5.094,29.741-5.096,44.759-.001,10.914-.039,21.828-.084,32.742-.103,25.023-.256,50.046-.366,75.069-.052,11.963-.099,23.926-.099,35.889,0,.934.631,1.629,1.468,1.929,4.349,1.558,9.331,1.656,13.899,1.705,5.604.06,11.231-.262,16.793-.946,2.536-.312,5.075-.673,7.564-1.261,2.504-.592,1.444-4.45-1.063-3.857-5.975,1.412-12.253,1.822-18.371,2.011-3.396.105-6.804.093-10.194-.157-2.548-.188-5.145-.485-7.564-1.352l1.468,1.929c0-22.841.142-45.682.26-68.523.122-23.681.264-47.362.287-71.044.016-16.04-.316-32.455,4.956-47.828.837-2.44-3.026-3.488-3.857-1.063h0Z"/><path class="e" d="M59.839,231.512c0,8.315.016,16.63.032,24.945.022,11.732.048,23.465.076,35.197.029,12.557.06,25.115.092,37.672.027,10.768.054,21.536.079,32.304.015,6.364.033,12.728.039,19.093,0,.357,0,.714,0,1.071,0,2.574,4,2.578,4,0,0-5.66-.019-11.32-.032-16.98-.024-10.372-.05-20.744-.076-31.117-.031-12.479-.062-24.959-.092-37.438-.028-11.972-.056-23.944-.079-35.916-.017-8.85-.034-17.701-.039-26.551,0-.759,0-1.519,0-2.278,0-2.574-4-2.578-4,0h0Z"/><path class="f" d="M51.822,39.212c-6.114,2.974-12.43,5.562-17.92,7.349-.854-.663-1.912-.916-2.832-.883-1.677.059-2.636.75-3.187,1.393-4.472-15.814.518-28.062,7.901-35.131,4.424-4.236,14.394-10.006,25.596-10.006,6.325,0,10.916,1.065,15.227,2.708,7.799,4.087,7.635,4.014,11.205,7.458,5.601,5.403,9.493,15.125,10.113,23.831.177,2.486-.028,8.915-.415,13.431l-.964-1.673c-.412-.715-1.37-1.932-3.621-2.012-.952-.034-2.052.238-2.917.96-4.076-2.376-8.512-5.838-11.513-10.528-1.66-2.594-3.743-6.866-5.226-10.305-4.969,4.475-13.017,9.308-21.447,13.408Z"/><path class="e" d="M92.56,63.707c2.256,1.575,4.069,3.893,5,6.489,1.153,3.212.768,6.287-.142,9.51-.947,3.356-2.083,6.604-2.366,10.106s.321,6.973,1.79,10.177c.45.982,1.87,1.224,2.736.718,1.008-.59,1.169-1.751.718-2.736-1.425-3.108-1.611-6.701-.994-10.031.672-3.628,2.208-7.038,2.774-10.691,1.04-6.706-1.974-13.138-7.498-16.995-2.115-1.477-4.117,1.989-2.019,3.454h0Z"/><path class="e" d="M87.595,60.87c-.3,1.437-.744,2.847-1.266,4.219-.192.506-.324.765-.564,1.363-.202.502.145-.292-.028.067-.061.127-.118.257-.179.384-.863,1.803-1.94,3.514-3.091,5.144-2.681,3.799-6.35,7.949-11.062,9.056-2.505.589-1.444,4.446,1.063,3.857,5.599-1.316,9.907-5.99,13.151-10.472,1.256-1.735,2.425-3.566,3.359-5.498.202-.418.383-.844.562-1.272.214-.513-.165.356.072-.165.153-.337.291-.682.428-1.025.59-1.488,1.085-3.026,1.412-4.594.524-2.512-3.331-3.586-3.857-1.063h0Z"/><path class="e" d="M32.463,61.834c2.402,10.534,10.334,22.02,21.718,23.737,1.067.161,2.15-.268,2.46-1.397.26-.945-.322-2.298-1.397-2.46-10.092-1.522-16.801-11.631-18.924-20.943-.572-2.509-4.43-1.447-3.857,1.063h0Z"/><path class="e" d="M56.543,70.8c1.792.946,3.72,1.355,5.748,1.342,2.136-.014,4.214-.468,5.916-1.794.829-.646.729-2.159,0-2.828-.88-.807-1.944-.689-2.828,0,.692-.539-.015-.018-.234.096-.169.089-.618.229.016.013-.156.053-.308.118-.465.169-.422.136-.888.157-1.302.297.212-.072.331-.04.031-.01-.128.013-.256.023-.384.032-.308.02-.617.028-.925.026-.276-.002-.553-.011-.828-.03-.127-.009-.253-.019-.379-.031-.072-.007-.144-.015-.216-.024-.157-.019-.095-.011.188.025-.015.053-1.105-.237-1.216-.27-.17-.051-.336-.112-.504-.17-.446-.153.425.203.021.012-.209-.098-.414-.201-.618-.308-.925-.488-2.217-.265-2.736.718-.488.924-.27,2.215.718,2.736h0Z"/><path class="e" d="M61.009,57.605c.238.907.466,1.827.602,2.755l-.071-.532c.016.127.023.253.01.38l.071-.532c-.009.059-.022.115-.042.171l.202-.478c-.018.04-.036.074-.06.11l.313-.405c-.028.034-.055.061-.09.089l.405-.313c-.07.045-.143.081-.218.115l.478-.202c-.12.05-.239.087-.368.107l.532-.071c-.116.014-.229.013-.345,0l.532.071c-.13-.018-.258-.05-.388-.067-.266-.083-.532-.095-.798-.036-.266.012-.514.091-.744.237-.415.243-.811.718-.919,1.195-.117.512-.091,1.087.202,1.541l.313.405c.25.248.544.419.883.514.348.047.687.134,1.041.15.572.025,1.093-.155,1.601-.39.639-.297,1.144-.905,1.314-1.592.145-.589.087-1.059-.013-1.649-.15-.888-.355-1.767-.583-2.638-.127-.483-.49-.944-.919-1.195s-1.061-.357-1.541-.202c-.484.157-.951.457-1.195.919-.253.48-.342,1.007-.202,1.541h0Z"/><path class="e" d="M35.624,45.412c-2.024-1.806-4.871-2.227-7.344-1.094-1.766.809-2.851,2.48-3.349,4.308-1.137,4.179-.075,9.066,2.321,12.631,1.644,2.446,4.242,4.652,7.389,4.244,1.071-.139,2-.82,2-2,0-.973-.921-2.14-2-2-2.177.282-3.594-1.52-4.538-3.262-.759-1.399-1.408-3.153-1.551-4.819-.155-1.803-.042-3.645.825-5.039-.326.524.512-.436.202-.21.399-.292.498-.326.918-.42.818-.182,1.647-.092,2.299.489,1.915,1.709,4.754-1.11,2.828-2.828h0Z"/><path class="e" d="M91.199,48.241c.616-.549,1.403-.659,2.172-.516.498.093.62.137,1.045.447-.303-.221.52.72.202.21.87,1.396.98,3.231.825,5.039-.143,1.662-.796,3.426-1.551,4.819-.944,1.741-2.36,3.544-4.538,3.262-1.073-.139-2,1.019-2,2,0,1.196.924,1.86,2,2,5.117.664,8.263-4.857,9.542-8.994,1.149-3.716,1.09-9.467-2.542-11.843-2.475-1.619-5.836-1.168-7.983.749-1.925,1.717.912,4.538,2.828,2.828h0Z"/><path class="e" d="M47.006,49.645c-.46,1.495-.16,4.935,2.673,5.228,3.744-.022,3.943-4.181,2.683-6.137-1.032-1.601-4.066-2.267-5.356.909Z"/><path class="e" d="M76.989,49.645c.46,1.495.16,4.935-2.672,5.228-3.744-.023-3.944-4.181-2.683-6.137,1.032-1.601,4.066-2.267,5.356.909Z"/><path class="e" d="M78.172,3.119c-11.443-4.598-24.172-4.117-35.181,1.472-4.182,2.123-8.073,4.924-11.056,8.568-3.211,3.923-5.521,8.523-6.712,13.456-1.65,6.834-1.177,13.959.653,20.705.673,2.482,4.533,1.428,3.857-1.063-2.72-10.027-1.927-20.921,4.399-29.459,5.635-7.604,15.772-12.18,25.055-12.792,6.161-.406,12.212.676,17.922,2.97,1.003.403,2.197-.439,2.46-1.397.314-1.141-.391-2.056-1.397-2.46h0Z"/><path class="e" d="M99.497,49.499c.509-5.952.906-12.074-.124-17.99-1.153-6.62-3.815-13.188-8.016-18.464-2.128-2.673-4.769-5.126-7.706-6.881-2.215-1.324-4.229,2.133-2.019,3.454,6.513,3.892,10.619,10.958,12.731,18.062,2.123,7.14,1.762,14.477,1.134,21.819-.219,2.565,3.782,2.55,4,0h0Z"/><path class="e" d="M71.698,27.175c1.803,4.114,3.724,8.343,6.474,11.923,2.811,3.66,6.417,6.606,10.353,8.986,2.209,1.335,4.221-2.122,2.019-3.454-3.526-2.132-6.863-4.773-9.336-8.101-2.548-3.428-4.35-7.48-6.056-11.373-.434-.989-1.881-1.218-2.736-.718-1.021.597-1.153,1.743-.718,2.736h0Z"/><path class="e" d="M72.011,24.248c-5.094,4.603-11.223,8.101-17.281,11.263-6.671,3.482-13.594,6.526-20.732,8.917-2.429.813-1.387,4.678,1.063,3.857,7.459-2.498,14.717-5.682,21.687-9.32,6.368-3.324,12.738-7.052,18.09-11.888,1.914-1.73-.922-4.551-2.828-2.828h0Z"/><path class="e" d="M30.26,57.382c-1.31,1.195-1.129,3.365-1.156,4.989-.028,1.715.083,3.489.573,5.141.282.947.73,1.841,1.525,2.455.975.753,2.181.961,3.329.476.779-.329,1.599-.824,2.269-1.341,1.338-1.033,1.177-3.331-.627-3.793-1.012-.259-2.217.331-2.46,1.397-.237,1.041.313,2.183,1.397,2.46l.06.015-1.397-1.397.017.058v-1.063l.637-.882-.152.093c-.133.055-.259.158-.381.232-.203.124-.406.248-.61.372-.041.025-.377.211-.376.22-.008-.053.34-.09.371-.09.154.002.275.056.411.119-.197-.093-.101-.082.021.033-.251-.238.04.154-.02-.031-.013-.039-.176-.356-.071-.114.103.237-.022-.085-.037-.131-.034-.104-.064-.21-.093-.315-.073-.264-.136-.531-.189-.8-.024-.119-.043-.239-.065-.359-.072-.382.005.138-.018-.1-.102-1.038-.132-2.071-.101-3.114.016-.521.042-1.042.07-1.562.006-.107.014-.214.019-.32.013-.305.032.061-.023.115-.036.035.236-.465.016-.151-.045.064-.352.44-.109.218.775-.707.771-2.121,0-2.828-.829-.761-2.002-.754-2.828,0h0Z"/><path class="e" d="M44.323,95.733c5.324,3.437,11.892,4.79,18.17,4.701,6.046-.086,12.73-1.153,17.583-5.014.846-.673.703-2.126,0-2.828-.836-.836-1.98-.675-2.828,0-1.881,1.496-4.306,2.298-6.608,2.86-2.798.684-5.673.973-8.55.986-5.483.024-11.099-1.158-15.747-4.159-2.169-1.4-4.177,2.061-2.019,3.454h0Z"/><path class="e" d="M43.792,88.857c-6.24,2.128-12.478,4.429-18.382,7.381-2.494,1.247-4.946,2.631-7.099,4.418-2.498,2.074-4.639,4.845-6.237,7.659-1.73,3.046-2.797,6.387-3.643,9.77-.624,2.498,3.232,3.563,3.857,1.063.877-3.51,1.975-6.896,3.934-9.968,1.913-3,4.361-5.544,7.393-7.398,6.548-4.005,14.009-6.603,21.24-9.068,2.423-.826,1.383-4.691-1.063-3.857h0Z"/><path class="e" d="M78.803,92.717c5.931,2.14,11.835,4.448,17.456,7.318,2.332,1.191,4.725,2.458,6.769,4.11,2.375,1.92,4.309,4.536,5.793,7.186,1.715,3.063,2.684,6.413,3.488,9.811.593,2.504,4.451,1.444,3.857-1.063-1.603-6.77-4.358-13.274-9.554-18.107-4.424-4.114-10.514-6.599-15.998-8.919-3.543-1.499-7.129-2.887-10.748-4.193-2.426-.875-3.47,2.989-1.063,3.857h0Z"/><path class="e" d="M92.459,173.178c3.885,3.986,9.649,6.516,15.268,5.894,5.683-.629,11.186-3.664,13.961-8.803s2.548-10.789,1.833-16.392c-.654-5.122-1.487-10.214-2.586-15.26-1.451-6.665-3.265-13.248-5.072-19.823-.681-2.479-4.542-1.426-3.857,1.063,2.743,9.977,5.442,19.972,6.986,30.218.717,4.761,1.726,9.833.58,14.603-1.126,4.69-4.405,8.247-9.003,9.721-5.514,1.768-11.284.052-15.281-4.049-1.8-1.846-4.627.983-2.828,2.828h0Z"/><path class="e" d="M28.707,170.35c-3.357,3.444-8.365,5.54-13.196,4.59-4.759-.936-8.85-3.816-10.537-8.469-1.723-4.748-.913-9.765-.228-14.629.654-4.65,1.504-9.267,2.546-13.846,1.385-6.091,3.042-12.118,4.698-18.139.683-2.486-3.175-3.546-3.857-1.063-3.001,10.917-5.872,21.834-7.393,33.071-.766,5.657-1.466,11.271.784,16.71,2.138,5.166,6.7,8.703,12.078,10.034,6.487,1.605,13.32-.696,17.934-5.43,1.798-1.844-1.028-4.676-2.828-2.828h0Z"/><path class="f" d="M92.171,145.364c.013-.561.053-9.597-.014-11.672-.033-1.015-.08-2.029-.143-3.043-.044-.71-.096-1.425-.28-2.115-.2-.751-.493-1.403-1.128-1.887-.586-.447-1.319-.681-2.05-.728-2.303-.147-6.498-.358-8.852-.508l-.11-.279c-.359-.913-1.582-3.999-1.871-4.538-1.993-.209-10.662-.53-14.989-.385-.499,1.242-.924,2.515-1.27,3.809-3.212-.032-7.445.126-10.514.103,0,0-2.365,2.365-4.175,4.175v20.827c.025.87-.019,1.944-.039,3.18-.021,1.346,1.039,2.467,2.384,2.521l7.633.031h25.486l9.932-9.492Z"/><path class="g" d="M90.801,150.386c-.094-.121-.192-.239-.294-.354.379-1.649.369-3.288-.066-4.828-.388-1.423-1.174-2.797-2.594-3.7-.884-.568-2.06-.913-3.302-.944,1.901,8.979-4.364,17.478-14.017,17.478-6.636,0-11.697-4.013-13.59-9.472-.469.228-.861.632-1.113,1.103-.407.775-.464,1.698-.341,2.581.795,5.712,6.531,9.608,11.548,10.913,2.376.618,4.771.608,6.815.353,2.792-.363,5.613.069,8.188,1.237.549.245,1.013.422,1.344.451,1.155.108,2.243-.52,3.19-1.207,1.183-.854,2.281-1.845,3.275-2.934.682-.756,1.306-1.57,1.751-2.483,1.276-2.59.957-5.931-.795-8.194Z"/><path class="e" d="M84.601,142.561c1.747.105,3.147,1.014,3.759,2.684.352.96.469,1.978.405,2.996-.038.594-.257,1.2-.257,1.79,0,.665.365,1.075.724,1.575,1.049,1.461,1.41,3.334.946,5.076-.544,2.04-2.249,3.636-3.812,4.953-.652.549-1.522,1.357-2.387,1.527s-1.848-.555-2.648-.837c-2.156-.761-4.542-1.074-6.821-.88-2.357.201-4.621.387-6.945-.212-1.636-.422-3.177-1.091-4.618-1.969-1.619-.987-3.133-2.268-4.164-3.876-.621-.969-2.313-4.143-.915-5.053,2.149-1.399.147-4.864-2.019-3.454-4.008,2.609-2.305,8.207.072,11.365,2.357,3.13,5.798,5.311,9.497,6.525,2.295.753,4.759,1.02,7.165.865,2.37-.152,4.517-.399,6.843.277,1.073.311,2.07.914,3.15,1.171,1.193.284,2.389.039,3.486-.462,2.084-.954,4.007-2.745,5.486-4.473,3.391-3.961,3.818-9.441.374-13.532l.514,1.946c.574-2.756.454-5.816-1.083-8.267-1.506-2.402-3.984-3.569-6.753-3.735-2.571-.154-2.562,3.846,0,4h0Z"/><path class="e" d="M50.95,126.122c3.505.019,7.009-.129,10.514-.103.877.007,1.697-.626,1.929-1.468.355-1.294.778-2.561,1.27-3.809l-1.929,1.468c4.956-.154,10.051-.107,14.989.385l-1.727-.991c.674,1.334,1.206,2.882,1.779,4.339.346.879.97,1.408,1.929,1.468,2.848.18,5.742.178,8.578.491,1.581.175,1.64,1.353,1.732,2.746.085,1.285.141,2.573.16,3.86.054,3.615.066,7.24-.003,10.855-.049,2.575,3.951,2.575,4,0,.075-3.955.108-7.936-.022-11.89-.121-3.69-.101-8.622-4.697-9.444-1.605-.287-3.302-.253-4.927-.342-1.607-.089-3.215-.175-4.821-.276l1.929,1.468c-.641-1.628-1.215-3.329-1.995-4.896-.835-1.677-2.789-1.473-4.423-1.555-4.15-.207-8.326-.348-12.48-.219-.964.03-1.593.616-1.929,1.468-.492,1.248-.914,2.515-1.27,3.809l1.929-1.468c-3.505-.027-7.009.121-10.514.103-2.574-.014-2.577,3.986,0,4h0Z"/><path class="g" d="M46.916,127.901c-.943.323-2.796.999-4.145,1.498,3.143-.47,5.826-.309,9.066.012,1.193.114,2.556.473,3.36,1.373.805.899.644,2.556.312,3.218-.057.104-.123.331-.17.435-.057.114-.057.284.028.379.663.767.833.861,1.221,1.666s.473,2.688-.038,3.427c-.521.748-1.391.748-2.3.861-2.082.275-9.125,1.079-11.122,1.287l.823.604c3.158-.13,7.299-.162,9.285.175,1.195.203,2.191.933,2.191,2.858,0,2.368-3.783,2.469-5.479,2.622-2.11.191-4.003.349-5.827.483-1.279,2.218-5.582,6.02-8.108,7.247-.351.171-1.079.171-1.469.158-.644-.022-1.151-.095-1.626-.528-2.317-2.114-4.648-4.752-4.542-7.879.074-2.172.939-4.352,1.662-6.403,1.131-3.208,1.42-4.917,1.499-8.204.035-1.478.187-2.967.368-4.029.197-1.153,1.192-2.845,3.333-3.541,2.27-.844,4.753-1.606,7.023-2.451,1.248-.464,2.603-.68,3.907-.58s2.579.649,3.042,2.059c.205.624.206,1.387-.159,1.911-.492.708-1.19,1.023-1.943,1.275-.053.018-.111.037-.192.065Z"/><path class="e" d="M35.769,127.549c2.401-.887,4.834-1.713,7.258-2.535,1.124-.381,2.138-.568,3.326-.407-.437-.059.296.097.375.116.221.079.23.08.029.002.081.039.16.083.237.131.117.077.105.059-.038-.052.093.078.18.162.262.252-.298-.329.179.462.063.125.042.127.074.256.097.388-.036-.195-.047-.17-.034.073-.023-.26.185-.27-.02-.091.091-.134.06-.115-.093.058.152-.107.131-.096-.064.033-.11.066-.224.127-.34.181.181-.073.16-.066-.064.019-.667.224-1.329.462-1.991.701-1.342.485-2.684.973-4.018,1.48-1.009.384-1.703,1.348-1.397,2.46.266.966,1.445,1.783,2.46,1.397,1.228-.467,2.463-.917,3.698-1.364,1.59-.577,3.473-.975,4.688-2.219,1.955-2.003,1.192-5.241-.965-6.747-1.904-1.329-4.674-1.152-6.797-.544-1.302.373-2.572.901-3.855,1.335-1.297.439-2.595.875-3.88,1.35-1.013.374-1.701,1.355-1.397,2.46.268.974,1.442,1.773,2.46,1.397h0Z"/><path class="e" d="M43.282,131.33c1.419-.206,2.987-.254,4.468-.211.751.022,1.501.067,2.25.126.346.027.692.057,1.037.089.222.02.444.041.666.064.112.011.223.022.335.034-.159-.021-.166-.019-.022.004.644.121,1.01.258,1.389.443.494.242-.06-.098.166.105.074.066.406.33.114.099.077.061.109.341.02.021.019.07.097.604.066.194.009.121.013.244.012.365,0,.007-.059.572-.008.252.056-.349-.251.853.01.077-.329.978-.766,1.741-.171,2.775.198.344.495.635.757.933.07.079.138.159.207.238-.31-.349-.08-.123-.016-.003.065.123.139.247.209.368.097.17.069.365-.011-.046.018.095.059.193.082.288.04.165.067.478.038.135.023.272.023.537.025.809,0,.123-.075.498.011.072-.021.103-.053.209-.07.312-.056.346-.021-.015.046-.082l.12-.138c.145-.08.158-.085.039-.017l-.079.047c.195-.081.179-.085-.048-.013-.43.065.24-.011-.256.05-1.796.221-3.593.437-5.39.645-2.048.237-4.097.476-6.148.69-1.074.112-2,.839-2,2,0,.994.919,2.113,2,2,2.625-.275,5.247-.582,7.868-.891,1.12-.132,2.239-.275,3.359-.409,1.146-.137,2.212-.24,3.144-.983s1.263-1.793,1.378-2.933c.091-.907.008-1.917-.308-2.775-.171-.463-.39-.926-.676-1.33-.181-.256-.381-.503-.586-.741-.056-.065-.114-.128-.17-.192-.077-.086-.244-.398-.1-.112l.273,1.009c-.064.287-.07.354-.016.2.052-.129.032-.092-.058.11.079-.219.197-.424.273-.644.132-.384.186-.778.231-1.182.083-.74.024-1.52-.21-2.23-.603-1.829-2.336-2.909-4.144-3.314-1.735-.389-3.618-.451-5.391-.514-1.942-.068-3.855.067-5.777.346-1.07.155-1.658,1.512-1.397,2.46.316,1.148,1.387,1.553,2.46,1.397h0Z"/><path class="e" d="M42.024,137.784c.632-.12,1.267-.223,1.904-.315.147-.021.724-.036.106-.016.171-.005.348-.045.518-.066.326-.04.653-.078.979-.114,1.269-.139,2.542-.25,3.817-.321,1.043-.058,2.05-.878,2-2-.046-1.034-.881-2.062-2-2-2.804.156-5.629.448-8.388.974-1.03.196-1.711,1.49-1.397,2.46.356,1.099,1.357,1.607,2.46,1.397h0Z"/><path class="e" d="M43.952,144.66c1.903-.077,3.81-.117,5.715-.078.859.018,1.72.049,2.576.128.155.014.309.035.464.049.271.024-.423-.08-.17-.023.055.012.112.016.168.027.157.031.31.076.466.111.22.049.031.134-.149-.076.049.057.19.101.256.137.372.2-.218-.229.007.01.241.257-.091-.11-.08-.127-.001.001.146.234.134.215.17.252-.041-.109-.037-.107.025.011.058.182.064.209.017.065.111.378.043.119-.073-.279.013.18.015.25,0,.024.003.307,0,.307-.042-.004.118-.437.035-.253-.025.055-.051.147-.055.207-.017.236.186-.404.078-.194-.183.354.282-.231.043-.034-.046.038-.107.099-.149.145-.213.234.304-.159.107-.087-.105.038-.24.132-.338.194-.263.165.105-.056.16-.06-.057.003-.163.062-.223.083-.311.109-.632.19-.954.256-.164.034-.329.063-.495.089-.062.01-.124.017-.185.028-.265.048.429-.047.164-.023-.309.028-.617.065-.926.091-2.188.184-4.374.382-6.563.544-1.041.077-2.051.865-2,2,.046,1.017.883,2.083,2,2,2.207-.164,4.412-.36,6.617-.549,1.629-.139,3.522-.303,4.896-1.292.849-.611,1.536-1.437,1.708-2.5.196-1.21.014-2.556-.65-3.606-1.202-1.898-3.378-2.098-5.419-2.212-2.436-.136-4.886-.079-7.322.019-1.044.042-2.05.89-2,2,.047,1.048.88,2.045,2,2h0Z"/><path class="e" d="M34.706,123.692c-1.69.613-3.175,1.626-4.073,3.224-.805,1.434-.901,3.132-1.02,4.738-.14,1.896-.069,3.798-.464,5.667-.409,1.933-1.15,3.762-1.775,5.63-.67,2.003-1.202,4.141-.892,6.261.291,1.996,1.298,3.724,2.539,5.28,1.076,1.348,2.53,3.149,4.278,3.569,1.706.41,3.323.025,4.777-.882,2.916-1.818,5.981-4.399,7.773-7.371,1.332-2.21-2.125-4.223-3.454-2.019-1.459,2.421-4.074,4.554-6.462,6.014-.47.287-.978.601-1.57.401-.643-.217-1.28-1.131-1.732-1.626-1.15-1.26-2.251-2.814-2.254-4.587-.004-2.084.914-4.13,1.591-6.065.65-1.86,1.143-3.718,1.376-5.678.238-2.002.14-4.027.41-6.027.172-1.28.722-2.201,2.018-2.672,2.401-.871,1.365-4.738-1.063-3.857h0Z"/><path class="e" d="M63.451,130.568c3.709.015,7.418-.069,11.127-.071,1.046,0,2.048-.92,2-2s-.879-2-2-2c-3.709.002-7.418.086-11.127.071-1.046-.004-2.048.923-2,2,.049,1.087.879,1.995,2,2h0Z"/><path class="g" d="M70.529,158.038c8.492,0,14.361-6.577,14.361-14.273,0-8.611-5.996-14.541-14.362-14.541-8.689,0-14.362,5.985-14.362,14.541,0,7.749,5.901,14.273,14.362,14.273Z"/><path class="e" d="M70.529,148.361c2.788,0,4.715-2.159,4.715-4.686,0-2.827-1.969-4.774-4.716-4.774-2.853,0-4.716,1.965-4.716,4.774,0,2.544,1.937,4.686,4.716,4.686Z"/><path class="e" d="M70.529,150.361c2.949-.038,5.528-1.865,6.421-4.697.816-2.587-.042-5.678-2.2-7.345-2.172-1.678-5.346-1.889-7.737-.522-2.5,1.429-3.502,4.354-3.08,7.098.495,3.218,3.428,5.426,6.596,5.467,1.046.013,2.048-.93,2-2-.049-1.095-.879-1.986-2-2-.137-.002-.273-.013-.41-.016-.463-.011.449.108.006.003-.209-.05-.416-.091-.621-.158.005.002-.22-.092-.236-.085l.249.105c-.075-.034-.149-.07-.221-.107-.174-.09-.432-.34-.616-.385l.216.164c-.061-.051-.121-.103-.18-.158-.058-.054-.115-.11-.171-.166-.05-.051-.175-.245-.239-.265.205.066.23.343.062.073-.116-.187-.224-.374-.333-.565-.1-.177.031-.164.054.149-.01-.14-.118-.319-.158-.458-.052-.179-.05-.439-.132-.599.168.33.026.354.025.098,0-.105-.01-.21-.01-.316,0-.153.095-.509.034-.642l-.039.284c.012-.081.026-.162.042-.242.027-.138.06-.274.099-.409.027-.094.056-.188.089-.281l.04-.109c.078-.197.056-.144-.068.159.115-.111.183-.357.27-.496.049-.078.111-.151.157-.23.129-.223-.341.378-.071.102.135-.137.369-.304.475-.461l-.23.176c.06-.044.121-.087.182-.128.062-.041.126-.081.19-.119.098-.058.2-.106.299-.161.347-.191-.363.105-.108.042.21-.052.412-.141.624-.191.08-.019.16-.031.24-.05.216-.035.163-.03-.16.017.085-.009.17-.017.256-.023.217-.014.436-.017.654-.007.092.004.295.058.38.03-.043.014-.495-.095-.164-.016.216.052.429.096.64.166.088.029.186.086.276.101-.298-.129-.351-.148-.16-.059.052.025.103.052.153.08.181.099.344.248.527.338-.368-.181-.262-.217-.142-.099.08.079.166.152.245.234.064.066.121.15.189.21.193.168-.281-.421-.07-.091.125.196.238.392.351.595.205.367-.146-.449-.016-.045.024.076.054.151.078.227.048.152.07.618.17.72-.027-.028-.042-.511-.024-.151.007.131.019.262.022.394.002.108.002.215-.003.323-.002.063-.005.125-.01.187-.022.22-.012.166.029-.162-.095.193-.1.503-.166.712-.029.091-.122.248-.122.341,0-.198.171-.367,0-.043-.096.183-.321.412-.381.605l.166-.218c-.051.061-.103.121-.157.179-.081.088-.165.172-.253.253l-.089.08c-.161.135-.119.106.125-.086-.076.019-.231.162-.299.205-.103.065-.209.126-.317.182-.402.209-.064-.046.027.003-.08-.043-.607.192-.731.219l-.128.026c-.219.036-.172.031.139-.014.001.013-.504.028-.546.028-1.046.014-2.049.91-2,2,.048,1.072.879,2.014,2,2Z"/><path class="e" d="M44.775,149.124c.045,1.867-.434,4.051.707,5.685.905,1.297,2.292,2.01,3.87,2.017l5.539.023,1.862.008c1.046.004,2.048-.923,2-2-.049-1.087-.879-1.995-2-2-1.388-.006-2.776-.011-4.165-.017l-2.675-.011c-.229,0-.459.002-.688-.003-.035,0-.07-.001-.105,0-.368.009.325.124-.007-.01-.035-.014-.252-.061-.253-.082,0-.03.389.229.123.031.011.008-.221-.128-.218-.143.008-.046.306.309.065.012-.162-.199.163.34.068.102-.012-.031-.184-.269-.167-.279.029-.016.114.397.073.176-.003-.017-.097-.318-.09-.319.101-.018.002.457.022.128.009-.141,0-.286.003-.428.018-.963.057-1.927.034-2.891-.025-1.045-.902-2.049-2-2-1.062.048-2.027.879-2,2h0Z"/><path class="e" d="M70.529,160.038c7.157-.08,13.503-4.479,15.639-11.394,1.962-6.35-.024-13.908-5.33-18.031-5.27-4.095-13.219-4.522-18.991-1.198-5.859,3.374-8.416,10.364-7.478,16.872,1.162,8.064,8.145,13.662,16.159,13.751,2.575.029,2.577-3.971,0-4-5.408-.06-10.261-3.308-11.828-8.591-1.408-4.748-.136-10.595,3.876-13.727,3.864-3.016,9.886-3.337,14.163-1.033,4.573,2.463,6.725,7.738,6.051,12.79-.829,6.218-6.102,10.492-12.263,10.561-2.572.029-2.579,4.029,0,4Z"/><path class="e" d="M94.227,173.65c.222,5.333.955,10.608,1.423,15.919.059.664.242,1.5.127,2.161-.121.692-.604.51-1.177.51H30.285c-.363,0-.727,0-1.09,0-.509,0-.88.119-.978-.51-.138-.89.145-2.016.243-2.904.133-1.207.281-2.412.419-3.618.38-3.314.691-6.633.798-9.968.082-2.575-3.918-2.572-4,0-.171,5.351-1.125,10.612-1.435,15.944-.166,2.861,1.686,4.963,4.542,5.056.706.023,1.417,0,2.124,0h63.825c1.231,0,2.454-.116,3.428-.956,1.118-.964,1.61-2.398,1.611-3.848.002-2.407-.429-4.855-.687-7.243-.379-3.507-.711-7.018-.858-10.543-.107-2.565-4.107-2.578-4,0h0Z"/></g></svg>