<?xml version="1.0" encoding="UTF-8"?>
<svg id="_レイヤー_1" data-name="レイヤー 1" xmlns="http://www.w3.org/2000/svg" version="1.1" viewBox="0 0 121.9 121.9">
  <defs>
    <style>
      .cls-1 {
        fill: #cfcfcf;
      }

      .cls-1, .cls-2, .cls-3 {
        stroke-width: 0px;
      }

      .cls-2 {
        fill: #211715;
      }

      .cls-3 {
        fill: #fff;
      }
    </style>
  </defs>
  <path class="cls-3" d="M23.3,63.4c0-9.3,0-21.5,0-29.4,0-1.5,1.2-2.8,2.8-2.8,0,0,0,0,0,0,12,0,46.6,0,60.8,0,1.5,0,2.8,1.2,2.8,2.8h0c0,10.5,0,27.6,0,38.5,2.2,3.1,6.9,9.6,9.2,13.5.2.4.3.8.3,1.3,0,.4,0,.9,0,1.4,0,1.1-.9,1.9-1.9,1.9H15.4c-.9,0-1.6-.7-1.6-1.6h0c0-2.5,0,.7,0-1.7,0-.5.1-.9.3-1.3,2.3-4,7.1-10.7,9.2-13.7,0-2.2,0-5.3,0-8.9Z"/>
  <path class="cls-1" d="M85.2,74.4c.5,0,1.1.3,1.4.7,1,1.5,2.2,3.1,3.2,4.8.2.4.1.9-.3,1.1-.1,0-.3.1-.4.1H24c-.4,0-.8-.4-.8-.8,0-.1,0-.3.1-.4,1-1.6,2.1-3.3,3.2-4.8.3-.4.8-.7,1.4-.7h57.3"/>
  <path class="cls-2" d="M85.9,75.5c.7.9,1.3,1.9,1.9,2.8.3.5.6.9.9,1.4,0,.1.3.4.3.5,0,0,0,0,0,.1,0,0-.2,0-.2,0H24.4c-.1,0-.3,0-.4,0,0,0,0,0,0,0,0-.1.2-.3.3-.5.6-1,1.3-2,1.9-2.9.3-.5.6-.9.9-1.3,0-.1.2-.4.3-.4.1,0,.2,0,.3,0h53.8c1,0,1-1.5,0-1.5H28.3c-.7,0-1.5,0-2,.5-.3.4-.7.9-.9,1.3-.3.5-.7,1-1,1.5-.3.5-.6.9-.9,1.4-.3.5-.7,1-.9,1.5-.2.9.3,1.7,1.1,2,.1,0,.3,0,.4,0,.5,0,1,0,1.4,0h62.8c.2,0,.4,0,.6,0,.9,0,1.6-.6,1.7-1.5,0,0,0,0,0,0,0-.5-.3-.9-.5-1.4-.3-.5-.6-.9-.9-1.4-.6-1-1.3-1.9-1.9-2.8-.2-.4-.7-.5-1.1-.3-.4.2-.5.7-.3,1.1h0Z"/>
  <path class="cls-2" d="M26.3,34.9c0,5.5,0,11,0,16.5v16.2c0,1.1,0,2.2,0,3.3,0,.4.3.8.8.8h8.8s12.8,0,12.8,0h14.2s13.1,0,13.1,0h9.2s.8,0,.8,0c.4,0,.8-.3.8-.8,0-4.8,0-9.5,0-14.3,0-5,0-9.9,0-14.9v-6.8c0-.4-.3-.8-.8-.8h-5.1s-12.5,0-12.5,0h-15.7s-14.9,0-14.9,0h-10s-.7,0-.7,0c-1,0-1,1.5,0,1.5h9.2s14.6,0,14.6,0h15.9s13.1,0,13.1,0h4.2c.6,0,1.3,0,2,0,0,0,0,0,0,0l-.8-.8v13.1c0,5.1,0,10.1,0,15.2,0,2.6,0,5.1,0,7.7l.8-.8h-8.6s-12.8,0-12.8,0h-14.2s-13.1,0-13.1,0h-9.4s-.8,0-.8,0l.8.8c0-3.2,0-6.3,0-9.5v-18.1c0-2.8,0-5.6,0-8.4,0-1-1.5-1-1.5,0Z"/>
  <path class="cls-2" d="M24.1,63.4v-17c0-2.7,0-5.5,0-8.2v-3.6c0-.5,0-1,.2-1.5.2-.5.6-.8,1-1,.6-.3,1.5-.2,2.1-.2h19.7s14,0,14,0h13.5s11,0,11,0c.8,0,1.7-.1,2.4.3.4.2.7.6.8,1.1.1.5.1,1,.1,1.5,0,2.4,0,4.8,0,7.2,0,5.5,0,10.9,0,16.4,0,2.7,0,5.3,0,8v5.4c0,.3,0,.5,0,.8,0,.3.2.6.4.8,2.8,3.9,5.6,7.7,8.1,11.8.3.4.6.9.8,1.3.4.6.2,1.4.2,2.1,0,.5-.2.9-.6,1.2-.3.1-.6.2-.9.2H16.2c-.4,0-.9,0-1.2-.1-.6-.4-.3-1.1-.4-1.7,0-.8-1.3-1.1-1.5-.2,0,.2,0,.3,0,.5h1.5c0-.6,0-1.1.1-1.7.4-.7.8-1.5,1.3-2.1,1-1.6,2-3.1,3.1-4.7,1-1.5,2.1-3,3.2-4.6.4-.6.9-1.3,1.3-1.9.2-.3.4-.6.6-.9.1-.4,0-1,0-1.5v-7.6c0-1-1.5-1-1.5,0,0,3,0,5.9,0,8.9v-.4c-2.9,4.2-6,8.5-8.7,12.9-.4.7-.8,1.4-.9,2.2,0,.4,0,.8,0,1.2,0,.4.3.8.8.8s.8-.3.8-.8c0-.1,0-.5,0,0l-1.5-.2c0,.3,0,.5,0,.8,0,.7.2,1.3.6,1.8.6.7,1.4.8,2.3.8h80.5c.6,0,1.2,0,1.7-.1.6-.2,1.2-.6,1.5-1.2.4-.6.4-1.3.4-2.1,0-.9,0-1.6-.4-2.4-.3-.5-.6-1-.9-1.4-.7-1.1-1.4-2.1-2.1-3.1-1.5-2.2-3-4.3-4.5-6.5-.6-.8-1.2-1.6-1.8-2.5v.4c.1-5,.1-10,0-15,0-5.4,0-10.7,0-16.1,0-2.3,0-4.7,0-7,0-1.2-.3-2.3-1.3-3.1-.9-.7-1.9-.8-3-.8h-10.6s-13.2,0-13.2,0h-13.8s-12.6,0-12.6,0h-9.5c-1.1,0-2.2.3-3,1.2-.9,1-.9,2.1-.9,3.3v7.6s0,17,0,17c0,1.3,0,2.6,0,3.9,0,1,1.5,1,1.5,0Z"/>
  <path class="cls-2" d="M92.6,85.5H22.9c-.9,0-1.9,0-2.8,0h-.1c-1,0-1,1.5,0,1.5h69.7c.9,0,1.9,0,2.8,0h.1c1,0,1-1.5,0-1.5Z"/>
  <path class="cls-3" d="M66.5,44.3c.8,5.2,1.7,12,2.5,17.3.1,1,1,1.6,2,1.5,0,0,0,0,0,0,6.1-.9,19-2.7,25.3-3.7,1-.1,1.6-1,1.5-2,0,0,0,0,0,0-.8-5.3-1.7-12.1-2.5-17.3-.1-1-1-1.6-2-1.5,0,0,0,0,0,0-5.3.8-19.4,2.8-25.3,3.7-1,.1-1.6,1-1.5,2h0Z"/>
  <path class="cls-2" d="M65.8,44.5c.6,4,1.1,7.9,1.7,11.9.1,1,.3,1.9.4,2.9l.2,1.4c0,.4.1.9.2,1.3.3.9,1,1.5,1.9,1.7.7.1,1.4,0,2.1-.2,6.3-.9,12.6-1.8,18.9-2.7l4.1-.6c.8-.1,1.5-.2,2.1-.7.7-.6,1.1-1.5.9-2.4-.5-3.9-1.1-7.9-1.7-11.8-.1-1-.3-2-.4-3,0-.4-.1-.9-.2-1.3,0-.5-.1-1-.2-1.4-.3-.8-1-1.5-1.9-1.7-.6-.1-1.3,0-1.9.1l-8,1.2-9.5,1.4-4.2.6-1.8.3c-.7.1-1.4.2-2,.6-.7.5-1,1.4-.9,2.2,0,.4.3.8.8.8.4,0,.8-.3.8-.8-.1-.6.3-1.1.8-1.2,0,0,0,0,.1,0,.5,0,1-.1,1.5-.2l3.7-.5,8.9-1.3,8.2-1.2,1.6-.2h.7c.2-.1.4-.2.6-.2.7,0,.9.7,1,1.3.1.9.3,1.8.4,2.7.5,3.8,1.1,7.6,1.6,11.4.1.9.3,1.8.4,2.6,0,.6-.3,1.1-.9,1.2,0,0,0,0,0,0-1.2.2-2.4.4-3.7.5-6.1.9-12.2,1.8-18.3,2.6l-1.9.3c-.5,0-1.1.3-1.6.2-.7-.1-.8-.8-.9-1.4l-.4-2.7c-.6-3.8-1.1-7.6-1.7-11.4l-.4-2.5c-.1-.4-.5-.6-.9-.5-.4.1-.6.5-.5.9Z"/>
  <path class="cls-2" d="M69.1,46.3c3.3,2.2,6.7,4.3,10.1,6.3.4.2.8.5,1.2.7.4.3.9.5,1.4.8.5.2.9.1,1.4,0,.4-.3.8-.6,1.1-1,1.5-1.5,2.9-3.1,4.3-4.7,1.6-1.8,3.2-3.7,4.7-5.5.3-.3.3-.8,0-1.1-.3-.3-.8-.3-1.1,0-2.6,3.1-5.3,6.2-8.1,9.2-.3.4-.7.7-1,1.1-.2.2-.3.3-.5.5,0,.1-.2.2-.3.2-.1,0-.3-.2-.4-.2l-.5-.3c-.4-.2-.8-.5-1.2-.7-1.6-1-3.3-2-4.9-3-1.8-1.1-3.5-2.2-5.3-3.4-.8-.5-1.6.8-.8,1.3h0Z"/>
  <path class="cls-2" d="M108,42.7l-7.1,1h-1c-.4.3-.6.7-.5,1.1.1.4.5.6.9.5l7.1-1h1c.4-.3.6-.7.5-1.1-.1-.4-.5-.6-.9-.5h0Z"/>
  <path class="cls-2" d="M105.8,47.4l-4.7.7h-.7c-.4.2-.6.6-.5,1,.1.4.5.6.9.5l4.7-.7h.7c.4-.2.6-.6.5-1-.1-.4-.5-.6-.9-.5h0Z"/>
  <path class="cls-2" d="M103.8,52l-2.4.3h-.3c-.2.1-.4.2-.5.4-.2.4,0,.8.3,1.1,0,0,0,0,0,0,.2,0,.4.1.6,0l2.4-.3h.3c.2-.1.4-.2.5-.4.1-.2.1-.4,0-.6,0-.2-.2-.4-.4-.5-.2,0-.4-.1-.6,0h0Z"/>
</svg>