<?xml version="1.0" encoding="UTF-8"?>
<svg id="b" xmlns="http://www.w3.org/2000/svg" version="1.1" viewBox="0 0 122 122">
  <defs>
    <style>
      .cls-1 {
        fill: #211715;
      }

      .cls-1, .cls-2, .cls-3, .cls-4 {
        stroke-width: 0px;
      }

      .cls-2 {
        fill: #a8815a;
      }

      .cls-3 {
        fill: #fff;
      }

      .cls-4 {
        fill: #645d5c;
      }
    </style>
  </defs>
  <g id="c">
    <path class="cls-3" d="M67.9,21.6c.2-.2.5-.3.8-.3.6,0,.8.3.9.5.3.5.3,1.5,0,2.1-.1.4-.4,1.1-1,1.6-.2.2-.6.3-.9.3h0c-.1.3-.2.7-.3.8-.2.6-1.5,2.9-3.2,3.7,0,.3,0,.6.1.9,0,.5,0,.9.7,1.2,0,0,.3.1.6.3-.6,1.2-2.8,1.8-4.7,1.8s-3.5-.4-4.8-1.6c.5-.2.9-.4.9-.4.7-.2.7-.7.7-1.2,0-.3,0-.5.1-.8-.8-.4-1.5-.9-2.2-1.8-.8-1-1.3-2.1-1.6-3-.4,0-.7,0-1-.2-.6-.5-.8-1.1-1-1.6-.2-.6-.2-1.6,0-2.1.1-.2.3-.5.9-.5.3,0,.6,0,.8.3,0,0-1.1-6.8,6.9-6.8s6.9,6.8,6.9,6.8h0Z"/>
    <path class="cls-4" d="M66.9,33c-.4-.2-.9-.3-1.3-.5,0,0-.1,0-.4,0,0,0-.2,0-.2,0-.7-.2-.7-.7-.7-1.2,0-.3,0-.6-.1-.9,1.6-.9,2.9-3.1,3.2-3.7,0-.2.2-.5.3-.9,0,0,0,0,0,0,.3,0,.7,0,.9-.3,0,0,0,0,.1-.1.9.6,1.5,1.6,1.7,2.8.1,1.1-.4,2.2-.7,3.3-.2,1-.2,2.1.1,3-1-.5-2.1-1-3.1-1.4h0Z"/>
    <path class="cls-1" d="M54.9,34c.2,0,.4-.2.6-.3.3-.1.6-.3,1-.4.3-.1.5-.2.8-.4,0,0,0,0,0,0,0,0,0,0,0,0-.1,0,0,0,0,0,0,0,.1,0,.2,0,.2-.1.5-.3.6-.6.1-.2.2-.5.2-.7,0-.4.1-.7.2-1.1,0-.3-.2-.5-.5-.5-.3,0-.5.2-.5.5,0,.4-.1.9-.2,1.3,0,0,0,0,0,0,0,0,0,0,0,0,0,0,0,0,0,0,0,0,0,0,0,0,0,0,0,0,0,0,0,0,0,0,0,0,0,0-.1,0,0,0,0,0,0,0,0,0,0,0,0,0-.1,0,0,0,0,0,0,0,0,0,0,0,0,0-.5.2-1.1.5-1.6.7-.1,0-.3.1-.4.2,0,0,0,0-.1,0-.1,0,.1,0,0,0-.2,0-.4.3-.3.6,0,.2.4.4.6.3h0Z"/>
    <path class="cls-1" d="M63.8,30.4c0,.3,0,.7.1,1,0,.2,0,.4,0,.5,0,.2.2.4.4.6,0,0,.2.2.3.2,0,0,.2,0,.2.1.2,0-.1,0,0,0,.5.2,1,.5,1.5.7.2.1.5.2.7.3.2.1.6-.1.6-.3,0-.3,0-.5-.3-.6.2.1,0,0,0,0-.1,0-.2,0-.3-.1-.3-.1-.6-.3-.8-.4-.2-.1-.4-.2-.7-.3,0,0,0,0,0,0,0,0,0,0,0,0,0,0,0,0-.1,0,0,0,0,0,0,0,0,0,0,0-.1,0,0,0,0,0,0,0,0,0,0,0,0,0,0,0,0,0,0,0,0,0,0,0,0,0,0,0,0-.1,0-.1,0,0,0,0,0,0,0,0,0,0,0,0,0,0,0,0,0-.1,0,0,0-.2,0-.3,0-.1,0-.3,0-.4,0,0,0,0,0-.2,0,0,0-.2,0-.3,0-.3-.2-.5-.5-.5-.3,0-.5.2-.5.5h0Z"/>
    <path class="cls-2" d="M48.1,39.5c.3-1.4.8-2.6,2.1-3.9,1-1,3.7-2.1,5.8-2.8,1.3,1.3,3.3,1.7,4.9,1.7s4.1-.5,4.7-1.8c2.2.8,5.2,2.1,6.2,3.1,1.4,1.4,1.8,2.7,2.1,4.2v-.3c1.1,4.1,1.5,6.1,1.9,9.6,0,.5,0,1.5-.2,2.1-.3.8-.6,1.2-1.2,1.8-.5.5-1.6,1-2.6,1-1,0-1.8-.4-2.4-.8,0,1.9.4,3.8.4,4.5,0,.2-.1.4-.3.5-.1,0-.2,0-.4,0h-16.6c-.1,0-.3,0-.4,0-.2-.1-.2-.3-.3-.5,0-.7.3-2.4.4-4.1,0,0,0-.1,0-.3-.6.4-1.4.8-2.4.8-1,0-2.1-.5-2.6-1-.6-.6-.9-1-1.2-1.8-.2-.6-.2-1.6-.2-2.1.4-3.5.9-5.5,2-9.6v-.2c0,0,0,0,0,0Z"/>
    <path class="cls-3" d="M50.9,113.3c-.1,0-.2-.1-.4-.2-.4-.3-.7-.7-.7-1.2,0-.7.4-1.4.9-1.8.8-.8,1.6-1.5,2.3-2.3,0,0,1-1.1,1.1-1.2,0,0,.4-.7.8-1.5,1.6.3,3.2.2,4.7,0,.1.7.2,1.5.2,1.5,0,.5,0,1.1,0,1.4,0,.7.2,1.7-1,2.4-.2.1-.7.5-1.4.9-1,.7-2.2,1.5-2.4,1.6-1,.6-2.1.8-3.2.7-.3,0-.7-.1-1-.3h0Z"/>
    <path class="cls-3" d="M67.1,113c0,0-.1,0-.2-.1-.2-.1-1.4-.9-2.4-1.6-.6-.4-1.2-.8-1.4-.9-1.2-.7-1-1.7-1-2.4,0-.3,0-.9,0-1.4,0,0,.1-.7.2-1.4,1.4.2,2.8.2,4.2,0,.2,0,.3,0,.5,0,.4.8.8,1.6.8,1.6,0,0,1.1,1.2,1.1,1.2.8.8,1.6,1.5,2.3,2.3.5.5.9,1.1.9,1.8,0,.5-.4.9-.7,1.2s-.9.4-1.4.5c-1,.1-2.1,0-3-.6h0Z"/>
    <path class="cls-1" d="M53.7,106.3c-.3.3-.6.6-.9,1-.5.6-1.1,1.1-1.6,1.6-.7.7-1.5,1.3-1.8,2.3-.3.9,0,1.8.7,2.3,1.4,1.1,3.8.8,5.2-.1.6-.4,1.2-.8,1.8-1.3.7-.5,1.4-.9,2-1.4.7-.5,1.1-1.3,1.1-2.1,0-.7,0-1.5-.1-2.2,0-.3-.4-.4-.6-.3-.3,0-.4.3-.3.6,0,.6,0,1.1.1,1.7,0,.5,0,1-.4,1.4-.2.2-.5.4-.7.5-.3.2-.7.5-1,.7-.6.4-1.2.9-1.9,1.3-1.2.8-2.6,1.2-4,.8-.3-.1-.6-.3-.8-.6-.2-.3-.2-.7-.1-1,.3-.8,1-1.3,1.5-1.8.5-.5,1.1-1,1.6-1.6.3-.3.6-.7.9-1,.4-.5-.3-1.2-.7-.7h0Z"/>
    <path class="cls-1" d="M61.7,106.3c0,.7-.1,1.3-.1,2,0,.7.1,1.4.6,1.9.2.3.6.5.9.7.4.2.7.5,1.1.8.7.5,1.4,1,2.1,1.5,1.4.9,3.3,1.3,4.9.7.8-.3,1.6-1.1,1.5-2,0-1-.7-1.7-1.3-2.4-.7-.7-1.4-1.3-2.1-2-.3-.4-.7-.7-1-1.1-.4-.5-1.2.2-.7.7.7.7,1.3,1.4,2,2.1.3.3.7.6,1,1,.3.3.6.6.8.9.2.3.3.6.3,1,0,.3-.3.6-.5.8-.6.5-1.6.5-2.4.4-.7,0-1.3-.3-1.9-.7-1.2-.8-2.3-1.7-3.5-2.4-.6-.4-.8-.8-.8-1.5,0-.6,0-1.3,0-1.9,0-.3,0-.5-.3-.6-.2,0-.6,0-.6.3h0Z"/>
    <path class="cls-3" d="M52.6,58.6c-1.2,3.5-1.3,7.2-1.3,10.9,0,9.7-.1,26.8-.1,36.1,2.1.8,8.2.3,9.8-.3,1.6.6,7.7,1.1,9.8.3,0-9.3-.1-26.3-.1-36.1s0-7.4-1.3-10.9"/>
    <path class="cls-1" d="M68.9,58.7c1.2,3.6,1.2,7.3,1.2,11.1,0,2.7,0,5.4,0,8.1,0,6.2,0,12.5,0,18.7,0,3,0,6,0,9l.4-.5c-.6.2-1.2.3-1.9.3-.9,0-1.7,0-2.6,0-1.5,0-3.1-.1-4.6-.5-.6-.1-.9.8-.3,1,1.2.3,2.4.4,3.6.5,1.4,0,2.8.1,4.2,0,.6,0,1.2-.1,1.8-.3.2,0,.4-.3.4-.5,0-5.7,0-11.5,0-17.2,0-5.9,0-11.9,0-17.8,0-4,0-8.2-1.3-12.1-.2-.6-1.2-.3-1,.3h0Z"/>
    <path class="cls-1" d="M52.1,58.4c-1.2,3.6-1.3,7.4-1.3,11.2,0,2.7,0,5.5,0,8.2,0,6.3,0,12.5,0,18.8,0,3,0,6,0,9s.2.4.4.5c1.1.4,2.3.4,3.5.4,1.4,0,2.8,0,4.2-.2.6,0,1.3-.2,1.9-.3.6-.1.4-1.1-.3-1-1.5.4-3.1.5-4.6.5-.8,0-1.7,0-2.5,0-.6,0-1.3-.1-1.9-.3l.4.5c0-5.7,0-11.4,0-17.1,0-5.9,0-11.8,0-17.8,0-4,0-8.1,1.2-12,.2-.6-.8-.9-1-.3h0Z"/>
    <path class="cls-1" d="M60.4,67.7c0,2.1,0,4.2,0,6.2,0,2.9,0,5.9,0,8.8,0,3.1,0,6.3,0,9.4,0,2.7,0,5.4,0,8.1,0,1.6,0,3.2,0,4.8v.3c0,.6,1,.6,1,0,0-1.4,0-2.8,0-4.2,0-2.6,0-5.2,0-7.8,0-3.1,0-6.2,0-9.4,0-3,0-6,0-9,0-2.2,0-4.4,0-6.6v-.6c0-.6-1-.6-1,0h0Z"/>
    <path class="cls-4" d="M58.4,19.7c-1.5.7-3.1,1.4-4.5,1.8-.2-.2-.5-.2-.7-.2-.4,0-.7.2-.8.3-1.1-4,.1-7,2-8.8,1.1-1.1,3.6-2.5,6.4-2.5s2.7.3,3.8.7c1.9,1,1.9,1,2.8,1.9,1.4,1.4,2.4,3.8,2.5,6,0,.6,0,2.2-.1,3.4l-.2-.4c-.1-.2-.3-.5-.9-.5-.2,0-.5,0-.7.2-1-.6-2.1-1.5-2.9-2.6-.4-.6-.9-1.7-1.3-2.6-1.2,1.1-3.3,2.3-5.4,3.4Z"/>
    <path class="cls-1" d="M68.6,25.8c.6.4,1,1,1.2,1.6.3.8.2,1.6,0,2.4-.2.8-.5,1.7-.6,2.5s0,1.7.4,2.5c.1.2.5.3.7.2.3-.1.3-.4.2-.7-.4-.8-.4-1.7-.2-2.5.2-.9.6-1.8.7-2.7.3-1.7-.5-3.3-1.9-4.2-.5-.4-1,.5-.5.9h0Z"/>
    <path class="cls-1" d="M67.4,25.1c0,.4-.2.7-.3,1.1,0,.1,0,.2-.1.3,0,.1,0,0,0,0,0,0,0,0,0,0-.2.5-.5.9-.8,1.3-.7.9-1.6,2-2.8,2.3-.6.1-.4,1.1.3,1,1.4-.3,2.5-1.5,3.3-2.6.3-.4.6-.9.8-1.4,0-.1,0-.2.1-.3,0-.1,0,0,0,0,0,0,0-.2.1-.3.1-.4.3-.8.4-1.1.1-.6-.8-.9-1-.3h0Z"/>
    <path class="cls-1" d="M53.6,25.3c.6,2.6,2.6,5.5,5.4,5.9.3,0,.5,0,.6-.3,0-.2,0-.6-.3-.6-2.5-.4-4.2-2.9-4.7-5.2-.1-.6-1.1-.4-1,.3h0Z"/>
    <path class="cls-1" d="M59.6,27.6c.4.2.9.3,1.4.3.5,0,1.1-.1,1.5-.4.2-.2.2-.5,0-.7-.2-.2-.5-.2-.7,0,.2-.1,0,0,0,0,0,0-.2,0,0,0,0,0,0,0-.1,0-.1,0-.2,0-.3,0,0,0,0,0,0,0,0,0,0,0,0,0,0,0-.2,0-.2,0,0,0-.1,0-.2,0,0,0,0,0,0,0,0,0,0,0,0,0,0,0,0,0,0,0,0,0-.3,0-.3,0,0,0,0,0-.1,0-.1,0,.1,0,0,0,0,0-.1,0-.2,0-.2-.1-.6,0-.7.2-.1.2,0,.6.2.7h0Z"/>
    <path class="cls-1" d="M60.7,24.3c0,.2.1.5.2.7h0c0-.1,0,0,0,0h0c0-.1,0-.1,0,0h0c0-.1,0-.1,0,0h0c0,0,0,0,0,0h.1c0,0,0,0,0,0h.1s0,0,0,0h.1s0,0,0,0h.1s0,0,0,0c0,0-.1,0-.2,0,0,0-.1,0-.2,0-.1,0-.2.2-.2.3,0,.1,0,.3,0,.4h0c0,.2.1.2.2.2,0,0,.2,0,.3,0,.1,0,.3,0,.4,0,.2,0,.3-.2.3-.4,0-.1,0-.3,0-.4,0-.2,0-.4-.1-.7,0-.1-.1-.2-.2-.3s-.3,0-.4,0c-.1,0-.2.1-.3.2,0,.1,0,.3,0,.4h0Z"/>
    <path class="cls-1" d="M54.4,21.2c-.5-.5-1.2-.6-1.8-.3-.4.2-.7.6-.8,1.1-.3,1,0,2.3.6,3.2.4.6,1.1,1.2,1.8,1.1.3,0,.5-.2.5-.5s-.2-.5-.5-.5c-.5,0-.9-.4-1.1-.8-.2-.3-.4-.8-.4-1.2,0-.5,0-.9.2-1.3,0,.1.1-.1,0,0,0,0,.1,0,.2-.1.2,0,.4,0,.6.1.5.4,1.2-.3.7-.7h0Z"/>
    <path class="cls-1" d="M68.3,21.9c.2-.1.4-.2.5-.1.1,0,.2,0,.3.1,0,0,.1.2,0,0,.2.3.2.8.2,1.3,0,.4-.2.9-.4,1.2-.2.4-.6.9-1.1.8-.3,0-.5.3-.5.5s.2.5.5.5c1.3.2,2.1-1.2,2.4-2.2.3-.9.3-2.4-.6-3-.6-.4-1.5-.3-2,.2-.5.4.2,1.1.7.7h0Z"/>
    <path class="cls-1" d="M57.2,22.3c-.1.4,0,1.2.7,1.3.9,0,1-1,.7-1.5-.3-.4-1-.6-1.3.2Z"/>
    <path class="cls-1" d="M64.7,22.3c.1.4,0,1.2-.7,1.3-.9,0-1-1-.7-1.5.3-.4,1-.6,1.3.2h0Z"/>
    <path class="cls-1" d="M65,10.6c-2.9-1.1-6-1-8.8.4-1,.5-2,1.2-2.8,2.1-.8,1-1.4,2.1-1.7,3.4-.4,1.7-.3,3.5.2,5.2.2.6,1.1.4,1-.3-.7-2.5-.5-5.2,1.1-7.4,1.4-1.9,3.9-3,6.3-3.2,1.5-.1,3.1.2,4.5.7.3.1.5-.1.6-.3,0-.3,0-.5-.3-.6h0Z"/>
    <path class="cls-1" d="M70.4,22.2c.1-1.5.2-3,0-4.5-.3-1.7-1-3.3-2-4.6-.5-.7-1.2-1.3-1.9-1.7-.6-.3-1.1.5-.5.9,1.6,1,2.7,2.7,3.2,4.5.5,1.8.4,3.6.3,5.5,0,.6.9.6,1,0h0Z"/>
    <path class="cls-1" d="M63.4,16.7c.5,1,.9,2.1,1.6,3,.7.9,1.6,1.7,2.6,2.2.6.3,1.1-.5.5-.9-.9-.5-1.7-1.2-2.3-2-.6-.9-1.1-1.9-1.5-2.8-.1-.2-.5-.3-.7-.2-.3.1-.3.4-.2.7h0Z"/>
    <path class="cls-1" d="M63.5,15.9c-1.3,1.2-2.8,2-4.3,2.8-1.7.9-3.4,1.6-5.2,2.2-.6.2-.3,1.2.3,1,1.9-.6,3.7-1.4,5.4-2.3,1.6-.8,3.2-1.8,4.5-3,.5-.4-.2-1.1-.7-.7h0Z"/>
    <path class="cls-1" d="M53.1,24.2c-.3.3-.3.8-.3,1.2,0,.4,0,.9.1,1.3,0,.2.2.5.4.6.2.2.5.2.8.1.2,0,.4-.2.6-.3.3-.3.3-.8-.2-.9-.3,0-.6,0-.6.3,0,.3,0,.5.3.6h0s-.3-.3-.3-.3h0s0-.3,0-.3l.2-.2h0s0,0,0,0c0,0-.1,0-.2,0,0,0,0,0,0,0,0,0,0,0,0,0,0,0,0,0,.1,0,0,0,0,0,0,0,0,0,0,0,0,0,0,0,0,0,0,0,0,0,0,0,0,0,0,0,0,0,0,0,0,0,0-.1,0-.2,0,0,0,0,0,0,0,0,0,0,0,0,0-.3,0-.5,0-.8,0-.1,0-.3,0-.4,0,0,0,0,0,0,0,0,0,0,0,0,0,0,0-.1,0,0,0,0,0,.1,0,0,.2-.2.2-.5,0-.7-.2-.2-.5-.2-.7,0h0Z"/>
    <path class="cls-1" d="M56.6,33.8c1.3.9,3,1.2,4.5,1.2,1.5,0,3.2-.3,4.4-1.3.2-.2.2-.5,0-.7-.2-.2-.5-.2-.7,0-.5.4-1.1.6-1.7.7-.7.2-1.4.2-2.1.2-1.4,0-2.8-.3-3.9-1-.5-.4-1,.5-.5.9h0Z"/>
    <path class="cls-1" d="M56.4,32.1c-1.6.5-3.1,1.1-4.6,1.8-.6.3-1.2.7-1.8,1.1-.6.5-1.2,1.2-1.6,1.9-.4.8-.7,1.6-.9,2.4-.2.6.8.9,1,.3.2-.9.5-1.7,1-2.5.5-.8,1.1-1.4,1.8-1.8,1.6-1,3.5-1.7,5.3-2.3.6-.2.3-1.2-.3-1h0Z"/>
    <path class="cls-1" d="M65.2,33c1.5.5,3,1.1,4.4,1.8.6.3,1.2.6,1.7,1,.6.5,1.1,1.1,1.4,1.8.4.8.7,1.6.9,2.5.1.6,1.1.4,1-.3-.4-1.7-1.1-3.3-2.4-4.5-1.1-1-2.6-1.6-4-2.2-.9-.4-1.8-.7-2.7-1-.6-.2-.9.7-.3,1h0Z"/>
    <path class="cls-1" d="M68.6,53.2c1,1,2.4,1.6,3.8,1.5,1.4-.2,2.8-.9,3.5-2.2s.6-2.7.5-4.1c-.2-1.3-.4-2.6-.6-3.8-.4-1.7-.8-3.3-1.3-5-.2-.6-1.1-.4-1,.3.7,2.5,1.4,5,1.7,7.6.2,1.2.4,2.5.1,3.7-.3,1.2-1.1,2.1-2.3,2.4-1.4.4-2.8,0-3.8-1-.5-.5-1.2.2-.7.7h0Z"/>
    <path class="cls-1" d="M52.7,52.4c-.8.9-2.1,1.4-3.3,1.1-1.2-.2-2.2-1-2.6-2.1-.4-1.2-.2-2.4,0-3.7.2-1.2.4-2.3.6-3.5.3-1.5.8-3,1.2-4.5.2-.6-.8-.9-1-.3-.8,2.7-1.5,5.5-1.8,8.3-.2,1.4-.4,2.8.2,4.2.5,1.3,1.7,2.2,3,2.5,1.6.4,3.3-.2,4.5-1.4.4-.5-.3-1.2-.7-.7h0Z"/>
    <path class="cls-4" d="M68.5,46.2c0-.1,0-2.4,0-2.9,0-.3,0-.5,0-.8,0-.2,0-.4,0-.5,0-.2-.1-.4-.3-.5-.1-.1-.3-.2-.5-.2-.6,0-1.6,0-2.2-.1h0c0-.3-.4-1.1-.5-1.2-.5,0-2.7-.1-3.7,0-.1.3-.2.6-.3,1-.8,0-1.9,0-2.6,0,0,0-.6.6-1,1v5.2c0,.2,0,.5,0,.8,0,.3.3.6.6.6h1.9s6.4,0,6.4,0l2.5-2.4h0Z"/>
    <path class="cls-3" d="M68.2,47.5s0,0,0,0c0-.4,0-.8,0-1.2,0-.4-.3-.7-.6-.9-.2-.1-.5-.2-.8-.2.5,2.2-1.1,4.4-3.5,4.4s-2.9-1-3.4-2.4c-.1,0-.2.2-.3.3-.1.2-.1.4,0,.6.2,1.4,1.6,2.4,2.9,2.7.6.2,1.2.2,1.7,0,.7,0,1.4,0,2,.3.1,0,.3.1.3.1.3,0,.6-.1.8-.3.3-.2.6-.5.8-.7.2-.2.3-.4.4-.6.3-.6.2-1.5-.2-2h0Z"/>
    <path class="cls-1" d="M66.6,45.5c.4,0,.8.3.9.7,0,.2.1.5.1.7,0,.1,0,.3,0,.4s0,.3.2.4c.3.4.4.8.2,1.3-.1.5-.6.9-1,1.2-.2.1-.4.3-.6.4s-.5-.1-.7-.2c-.5-.2-1.1-.3-1.7-.2-.6,0-1.2,0-1.7,0-.4-.1-.8-.3-1.2-.5-.4-.2-.8-.6-1-1-.2-.2-.6-1-.2-1.3.5-.3,0-1.2-.5-.9-1,.7-.6,2.1,0,2.8.6.8,1.4,1.3,2.4,1.6.6.2,1.2.3,1.8.2.6,0,1.1,0,1.7,0,.3,0,.5.2.8.3.3,0,.6,0,.9-.1.5-.2,1-.7,1.4-1.1.8-1,1-2.4,0-3.4v.5c.3-.7.2-1.5-.1-2.1-.4-.6-1-.9-1.7-.9-.6,0-.6,1,0,1h0Z"/>
    <path class="cls-1" d="M58.2,41.4c.9,0,1.8,0,2.6,0,.2,0,.4-.2.5-.4,0-.3.2-.6.3-1l-.5.4c1.2,0,2.5,0,3.7,0l-.4-.2c.2.3.3.7.4,1.1,0,.2.2.4.5.4.7,0,1.4,0,2.1.1.4,0,.4.3.4.7,0,.3,0,.6,0,1,0,.9,0,1.8,0,2.7,0,.6,1,.6,1,0,0-1,0-2,0-3,0-.9,0-2.2-1.2-2.4-.4,0-.8,0-1.2,0-.4,0-.8,0-1.2,0l.5.4c-.2-.4-.3-.8-.5-1.2-.2-.4-.7-.4-1.1-.4-1,0-2.1,0-3.1,0-.2,0-.4.2-.5.4-.1.3-.2.6-.3,1l.5-.4c-.9,0-1.8,0-2.6,0-.6,0-.6,1,0,1h0Z"/>
    <path class="cls-3" d="M57.2,41.8c-.2,0-.7.2-1,.4.8-.1,1.5,0,2.3,0,.3,0,.6.1.8.3.2.2.2.6,0,.8,0,0,0,0,0,.1,0,0,0,0,0,0,.2.2.2.2.3.4s.1.7,0,.9c-.1.2-.3.2-.6.2-.5,0-2.3.3-2.8.3l.2.2c.8,0,1.8,0,2.3,0,.3,0,.5.2.5.7s-.9.6-1.4.7c-.5,0-1,0-1.5.1-.3.6-1.4,1.5-2,1.8,0,0-.3,0-.4,0-.2,0-.3,0-.4-.1-.6-.5-1.2-1.2-1.1-2,0-.5.2-1.1.4-1.6.3-.8.4-1.2.4-2.1,0-.4,0-.7,0-1,0-.3.3-.7.8-.9.6-.2,1.2-.4,1.8-.6.3-.1.7-.2,1-.1s.6.2.8.5c0,.2,0,.3,0,.5-.1.2-.3.3-.5.3,0,0,0,0,0,0h0Z"/>
    <path class="cls-1" d="M54.4,41.7c.6-.2,1.2-.4,1.8-.6.3,0,.5-.1.8-.1-.1,0,0,0,0,0,0,0,0,0,0,0,0,0,0,0,0,0,0,0,0,0,0,0,0,0,0,0,0,0,0,0,0,.1,0,0,0,0,0,0,0,0,0,0,0,0,0,0,0,0,0,0,0,0,0,0,0,0,0,0,0,0,0,0,0,0,0,0,0,0,0,0,0,0,0,0,0,0-.2,0-.3.1-.5.2-.3.1-.7.2-1,.4-.3,0-.4.3-.3.6,0,.2.4.4.6.3.3-.1.6-.2.9-.3.4-.1.9-.2,1.2-.6.5-.5.3-1.3-.2-1.7-.5-.3-1.2-.3-1.7-.1-.3,0-.6.2-1,.3-.3.1-.6.2-1,.3-.3,0-.4.3-.3.6,0,.2.4.4.6.3h0Z"/>
    <path class="cls-1" d="M56.3,42.7c.4,0,.7,0,1.1,0,.2,0,.4,0,.6,0,0,0,.2,0,.3,0,0,0,.1,0,.2,0,0,0,0,0,0,0,0,0,0,0,0,0,.2,0,.3,0,.3.1.1,0,0,0,0,0,0,0,.1,0,0,0,0,0,0,0,0,0,0,0,0,.2,0,0,0,0,0,0,0,0,0,0,0,.1,0,0,0,0,0,.2,0,0,0,.2-.2.4,0,.7,0,0,.1.2.2.2,0,0,0,0,0,0,0,0,0,0,0,0,0,0,0,0,0,0,0,0,0,0,0,0,0,0,0,0,0,0,0,0,0,.1,0,0,0,0,0,.1,0,.2,0,0,0,.1,0,0,0,0,0,0,0,0,0,0,0,0,0,0h0c0,0,0,0,0,0h0s0,0,0,0c-.1,0,0,0,0,0-.4,0-.9.1-1.3.2-.5,0-1,.1-1.5.2-.3,0-.5.2-.5.5s.2.5.5.5c.7,0,1.3-.1,2-.2.3,0,.6,0,.8-.1.3,0,.6,0,.8-.2s.3-.4.3-.7c0-.2,0-.5,0-.7,0-.1,0-.2-.2-.3,0,0,0-.1-.1-.2,0,0,0,0,0,0,0,0,0,0,0,0v.3c0,0,0,0,0,0,0,0,0,0,0,0,0,0,0-.1,0-.2,0,0,0-.2,0-.3,0-.2,0-.4,0-.6-.2-.5-.6-.7-1-.8-.4,0-.9-.1-1.3-.1-.5,0-1,0-1.4,0-.3,0-.4.4-.3.6,0,.3.3.4.6.3h0Z"/>
    <path class="cls-1" d="M56,44.3c.2,0,.3,0,.5,0,0,0,.2,0,0,0,0,0,0,0,.1,0,0,0,.2,0,.2,0,.3,0,.6,0,1,0,.3,0,.5-.2.5-.5,0-.3-.2-.5-.5-.5-.7,0-1.4.1-2.1.2-.3,0-.4.4-.3.6,0,.3.3.4.6.3h0Z"/>
    <path class="cls-1" d="M56.5,46c.5,0,1,0,1.4,0,.2,0,.4,0,.6,0,0,0,0,0,.1,0,0,0-.1,0,0,0,0,0,0,0,0,0,0,0,0,0,.1,0,0,0,0,0,0,0,0,0,0,0,0,0,0,0,0,0,0,0,0,0,0,0,0,0,0,0,0,0,0,0,0,0,0,0,0,0,0,0,0,0,0,0,0,0,0,0,0,0,0,0,0,0,0,0,0,0,0,0,0,0,0,0,0-.1,0,0,0,0,0,0,0,0,0,0,0-.1,0,0,0,0,0,0,0,0,0,0,0,0,0,0,0,0,0,0,0,0,0,0,0,0,0,0,0,0,0,0,0,0,0,0,0,0,0,0,0,0-.2,0-.2,0,0,0,0,0-.1,0,0,0,0,0,0,0,0,0,.1,0,0,0,0,0-.2,0-.2,0-.5,0-1.1,0-1.6.1-.3,0-.5.2-.5.5,0,.3.2.5.5.5.6,0,1.1,0,1.7-.1.4,0,.9,0,1.2-.3.2-.2.4-.4.4-.6,0-.3,0-.6-.2-.9-.3-.5-.8-.5-1.4-.6-.6,0-1.2,0-1.8,0-.3,0-.5.2-.5.5,0,.3.2.5.5.5h0Z"/>
    <path class="cls-1" d="M54.2,40.8c-.4.2-.8.4-1,.8-.2.4-.2.8-.3,1.2,0,.5,0,.9-.1,1.4-.1.5-.3.9-.4,1.4-.2.5-.3,1-.2,1.6,0,.5.3.9.6,1.3.3.3.6.8,1.1.9.4.1.8,0,1.2-.2.7-.5,1.5-1.1,1.9-1.8.3-.6-.5-1.1-.9-.5-.4.6-1,1.1-1.6,1.5-.1,0-.2.2-.4.1-.2,0-.3-.3-.4-.4-.3-.3-.6-.7-.6-1.1,0-.5.2-1,.4-1.5.2-.5.3-.9.3-1.4,0-.5,0-1,.1-1.5,0-.3.2-.6.5-.7.6-.2.3-1.2-.3-1h0Z"/>
    <path class="cls-1" d="M61.3,42.5c.9,0,1.9,0,2.8,0,.3,0,.5-.2.5-.5s-.2-.5-.5-.5c-.9,0-1.9,0-2.8,0-.3,0-.5.2-.5.5,0,.3.2.5.5.5h0Z"/>
    <path class="cls-3" d="M63.1,49.4c2.1,0,3.6-1.6,3.6-3.6s-1.5-3.6-3.6-3.6-3.6,1.5-3.6,3.6,1.5,3.6,3.6,3.6h0Z"/>
    <path class="cls-1" d="M63.1,46.9c.7,0,1.2-.5,1.2-1.2s-.5-1.2-1.2-1.2-1.2.5-1.2,1.2.5,1.2,1.2,1.2h0Z"/>
    <path class="cls-1" d="M63.1,47.4c.7,0,1.4-.5,1.6-1.2.2-.6,0-1.4-.5-1.8-.5-.4-1.3-.5-1.9-.1-.6.4-.9,1.1-.8,1.8.1.8.9,1.4,1.6,1.4.3,0,.5-.2.5-.5,0-.3-.2-.5-.5-.5,0,0,0,0-.1,0-.1,0,.1,0,0,0,0,0-.1,0-.2,0,0,0,0,0,0,0h0s0,0,0,0c0,0-.1,0-.2,0h0s0,0,0,0c0,0,0,0,0,0,0,0,0,0,0,0,0,0,0,0,0,0,0,0,0,0,0-.1,0,0,0,0,0,0,0,0,0,0,0-.1,0,0,0-.1,0-.1,0,0,0,0,0,0,0,0,0,0,0,0,0,0,0-.1,0-.2h0c0,0,0,0,0,0,0,0,0,0,0-.1,0,0,0,0,0,0h0c0,0,0,0,0,0,0,0,0,0,0-.1,0,0,0,0,0,0,0,0,0,0,0,0,0,0,0,0,.1-.1h0s0,0,0,0c0,0,0,0,0,0,0,0,0,0,0,0,0,0,0,0,0,0,0,0,.1,0,.2,0,0,0,0,0,0,0,0,0,0,0,0,0,0,0,0,0,0,0,0,0,.1,0,.2,0,0,0,0,0,0,0,0,0-.1,0,0,0,0,0,.1,0,.2,0,0,0,0,0,0,0,0,0,0,0,0,0,0,0,0,0,0,0,0,0,0,0,.1,0,0,0,0,0,0,0,0,0,0,0,0,0,0,0,0,0,0,0,0,0,0-.1,0,0,0,0,0,0,0,.1,0,0,0-.1,0,0,0,0,0,0,0,0,0,0,0,.2,0,.2,0,0,0-.1,0,0,0,0,0,0,0,0,0,0,0,0,0,0,0,0,0,0,0,0,0,0,0,0,0,0,0,0,0,.1,0,.2,0,0,0,0,0,0,0,0,0,0,0,0,0,0,0,.1,0,.2h0s0,0,0,0c0,0,0,0,0,0h0c0,0,0,0,0,0,0,0,0,0,0,0,0,0,0,0,0,0-.1,0,0,0,0,0,0,0-.2,0-.2,0h0c0,0,0,0,0,0,0,0-.1,0-.1,0-.3,0-.5.2-.5.5,0,.3.2.5.5.5h0Z"/>
    <path class="cls-1" d="M56.7,47.1c0,.5-.1,1,.2,1.4.2.3.6.5,1,.5h1.4s.5,0,.5,0c.3,0,.5-.2.5-.5,0-.3-.2-.5-.5-.5-.3,0-.7,0-1,0h-.7c0,0-.1,0-.2,0,0,0,0,0,0,0,0,0,0,0,0,0,0,0,0,0,0,0,0,0,0,0,0,0,0,0,0,0,0,0,0,0,0,0,0,0,0,0,0,0,0,0,0,0,0,0,0,0,0,0,0,0,0,0,0,0,0,0,0,0,0,0,0,.1,0,0,0,0,0,0,0-.1,0-.2,0-.5,0-.7,0-.3-.2-.5-.5-.5-.3,0-.5.2-.5.5h0Z"/>
    <path class="cls-1" d="M63.1,49.9c1.8,0,3.4-1.1,3.9-2.8.5-1.6,0-3.5-1.3-4.5-1.3-1-3.3-1.1-4.7-.3-1.5.8-2.1,2.6-1.9,4.2.3,2,2,3.4,4,3.4.6,0,.6-1,0-1-1.4,0-2.6-.8-3-2.1-.4-1.2,0-2.6,1-3.4,1-.8,2.5-.8,3.5-.3,1.1.6,1.7,1.9,1.5,3.2-.2,1.6-1.5,2.6-3.1,2.6-.6,0-.6,1,0,1h0Z"/>
    <path class="cls-1" d="M69,53.3c0,1.3.2,2.7.4,4,0,.2,0,.4,0,.5,0,.2-.2.1-.3.1h-16.4c-.1,0-.2,0-.2-.1,0-.2,0-.5,0-.7,0-.3,0-.6.1-.9,0-.8.2-1.7.2-2.5,0-.6-1-.6-1,0,0,1.3-.3,2.7-.4,4,0,.7.4,1.2,1.1,1.3.2,0,.4,0,.5,0h16c.3,0,.6,0,.9-.2.3-.2.4-.6.4-1,0-.6-.1-1.2-.2-1.8,0-.9-.2-1.8-.2-2.6,0-.6-1-.6-1,0h0Z"/>
  </g>
</svg>